<svg xmlns="http://www.w3.org/2000/svg" viewBox="0 0 12.56 17.32" fill="#fff">
  <path d="M2.25 15.13H1.7l-.55.73-.55-.73H.04l.82 1.06-.86 1.1h.54l.6-.77.57.76h.57l-.85-1.1zm7.94.26a.96.96 0 00-.78-.31 2.16 2.16 0 00-.87.2l.01 2h.48v-1.73a1.13 1.13 0 01.4-.08.38.38 0 01.42.4v1.41h.48v-1.82l-.11.24a.81.81 0 01.52-.22.37.37 0 01.41.38v1.42h.48v-1.57c0-.38-.3-.63-.76-.63a1.3 1.3 0 00-.85.28zm1.9-.26v2.15h.47v-2.15zm-5.05 1.83c-.4 0-.62-.28-.62-.78 0-.47.23-.74.62-.74.4 0 .63.27.63.74 0 .5-.22.78-.63.78zm0-1.88a1.02 1.02 0 00-1.12 1.1 1.13 1.13 0 102.26 0 1.02 1.02 0 00-1.14-1.1zm-4.4 2.2h.49v-2.15h-.48zm2.45-.38c-.53.13-1.09.05-1.09-.25 0-.29.32-.43 1.1-.4zm-.6-1.82a3.2 3.2 0 00-.8.12v.38a3.13 3.13 0 01.84-.1c.4 0 .55.15.55.39v.03c-1.12-.03-1.54.27-1.54.72s.35.7 1.17.7a2.67 2.67 0 00.85-.14v-1.26c0-.6-.28-.84-1.06-.84zM12.09 0H.48A.48.48 0 000 .48v11.6a.48.48 0 00.48.48h11.6a.48.48 0 00.48-.47V.48A.48.48 0 0012.1 0zM5.86 8.54a.08.08 0 01-.08.07H4.75a.08.08 0 01-.08-.07V5.82a.08.08 0 01.08-.07h1.03a.08.08 0 01.08.07zm2.03 0a.08.08 0 01-.07.07h-1a.08.08 0 01-.07-.07V5.68a.72.72 0 00-.77-.76H3.85a.08.08 0 00-.07.08v3.54a.08.08 0 01-.08.07h-.99a.08.08 0 01-.08-.07V4.03a.08.08 0 01.08-.08h3.77a1.34 1.34 0 011.04.41 1.28 1.28 0 01.37.98zm2.04 0a.08.08 0 01-.08.07h-.99a.08.08 0 01-.07-.07V4.03a.08.08 0 01.07-.08h1a.08.08 0 01.07.08z"/>
</svg>